<svg width="103" height="104" viewBox="0 0 103 104" fill="none" xmlns="http://www.w3.org/2000/svg">
<rect x="0.413086" y="0.913086" width="102.174" height="102.174" rx="51.087" fill="#34C67D"/>
<rect x="24.7766" y="31.2002" width="31.5406" height="45.0158" rx="2.96156" fill="#4E40E7"/>
<path d="M37.8815 23.9429L61.6248 23.9429C63.2608 23.9429 64.835 24.5677 66.0256 25.6898L79.1784 38.0849C80.465 39.2973 81.1944 40.9869 81.1944 42.7547L81.1944 76.8808C81.1944 79.5387 79.0397 81.6933 76.3818 81.6933L37.8815 81.6933C35.2236 81.6933 33.069 79.5387 33.069 76.8808L33.069 28.7554C33.069 26.0975 35.2236 23.9429 37.8815 23.9429Z" fill="#4D72D3"/>
<path d="M37.8815 23.9429L61.6248 23.9429C63.2608 23.9429 64.835 24.5677 66.0256 25.6898L79.1784 38.0849C80.465 39.2973 81.1944 40.9869 81.1944 42.7547L81.1944 76.8808C81.1944 79.5387 79.0397 81.6933 76.3818 81.6933L37.8815 81.6933C35.2236 81.6933 33.069 79.5387 33.069 76.8808L33.069 28.7554C33.069 26.0975 35.2236 23.9429 37.8815 23.9429Z" fill="white"/>
<path fill-rule="evenodd" clip-rule="evenodd" d="M71.5693 38.3801L79.4999 38.3801L73.9999 33.0001L66.7567 26.3441L66.7567 33.5676C66.7567 36.2255 68.9114 38.3801 71.5693 38.3801Z" fill="#4E40E7"/>
<path fill-rule="evenodd" clip-rule="evenodd" d="M47.7862 41.1303C47.7862 43.8817 45.5557 46.1122 42.8043 46.1122C40.0529 46.1122 37.8224 43.8817 37.8224 41.1303C37.8224 38.3789 40.0529 36.1484 42.8043 36.1484C45.5557 36.1484 47.7862 38.3789 47.7862 41.1303ZM44.1489 39.9735C44.2014 39.9192 44.2729 39.8875 44.3484 39.8851C44.4687 39.8803 44.5794 39.9503 44.6267 40.061C44.674 40.1717 44.648 40.3001 44.5614 40.3837C44.1791 40.7669 43.8133 41.1502 43.4461 41.5351C43.0759 41.923 42.7043 42.3125 42.313 42.7047C42.2086 42.8103 42.0413 42.8201 41.9254 42.7274L40.8374 41.857C40.7564 41.7922 40.7162 41.6892 40.7318 41.5866C40.7474 41.4841 40.8165 41.3977 40.9131 41.36C41.0097 41.3222 41.1191 41.3389 41.2001 41.4037L42.0818 42.1086C42.3967 41.7889 42.7026 41.469 43.0095 41.148C43.3819 40.7584 43.7558 40.3674 44.1489 39.9735Z" fill="#2EB371"/>
<path fill-rule="evenodd" clip-rule="evenodd" d="M47.7862 54.1738C47.7862 56.9252 45.5557 59.1557 42.8043 59.1557C40.0529 59.1557 37.8224 56.9252 37.8224 54.1738C37.8224 51.4224 40.0529 49.1919 42.8043 49.1919C45.5557 49.1919 47.7862 51.4224 47.7862 54.1738ZM44.1489 53.0169C44.2014 52.9626 44.2729 52.9309 44.3484 52.9285C44.4687 52.9237 44.5794 52.9937 44.6267 53.1044C44.674 53.2151 44.648 53.3435 44.5614 53.4272C44.1791 53.8103 43.8133 54.1937 43.4461 54.5785C43.0759 54.9665 42.7043 55.356 42.313 55.7482C42.2086 55.8538 42.0413 55.8636 41.9254 55.7708L40.8374 54.9005C40.7564 54.8357 40.7162 54.7326 40.7318 54.6301C40.7474 54.5276 40.8165 54.4412 40.9131 54.4034C41.0097 54.3657 41.1191 54.3824 41.2001 54.4471L42.0818 55.1521C42.3967 54.8323 42.7026 54.5124 43.0095 54.1915C43.3819 53.8019 43.7558 53.4109 44.1489 53.0169Z" fill="#2EB371"/>
<path fill-rule="evenodd" clip-rule="evenodd" d="M42.8043 72.1991C45.5557 72.1991 47.7862 69.9687 47.7862 67.2172C47.7862 64.4658 45.5557 62.2354 42.8043 62.2354C40.0529 62.2354 37.8224 64.4658 37.8224 67.2172C37.8224 69.9687 40.0529 72.1991 42.8043 72.1991Z" fill="#E8472E"/>
<path fill-rule="evenodd" clip-rule="evenodd" d="M44.9717 68.9317C45.1011 69.0611 45.1011 69.2552 44.9717 69.3846C44.907 69.4493 44.8423 69.4816 44.7453 69.4816C44.6482 69.4816 44.5835 69.4493 44.5188 69.3846L42.8043 67.67L41.0897 69.3846C41.025 69.4493 40.9603 69.4816 40.8633 69.4816C40.7662 69.4816 40.7015 69.4493 40.6368 69.3846C40.5074 69.2552 40.5074 69.0611 40.6368 68.9317L42.3514 67.2171L40.6368 65.5026C40.5074 65.3732 40.5074 65.1791 40.6368 65.0497C40.7662 64.9203 40.9603 64.9203 41.0897 65.0497L42.8043 66.7642L44.5188 65.0497C44.6482 64.9203 44.8423 64.9203 44.9717 65.0497C45.1011 65.1791 45.1011 65.3732 44.9717 65.5026L43.2572 67.2171L44.9717 68.9317Z" fill="white"/>
<path d="M64.0905 44.4818H50.1413C49.5434 44.4818 49.1449 44.0832 49.1449 43.4854C49.1449 42.8876 49.5434 42.489 50.1413 42.489H64.0905C64.6884 42.489 65.0869 42.8876 65.0869 43.4854C65.0869 44.0832 64.6884 44.4818 64.0905 44.4818Z" fill="#4E40E7"/>
<path d="M64.0905 57.9779H50.1413C49.5434 57.9779 49.1449 57.5793 49.1449 56.9815C49.1449 56.3837 49.5434 55.9851 50.1413 55.9851H64.0905C64.6884 55.9851 65.0869 56.3837 65.0869 56.9815C65.0869 57.5793 64.6884 57.9779 64.0905 57.9779Z" fill="#4E40E7"/>
<path d="M64.0905 69.9344H50.1413C49.5434 69.9344 49.1449 69.5359 49.1449 68.938C49.1449 68.3402 49.5434 67.9417 50.1413 67.9417H64.0905C64.6884 67.9417 65.0869 68.3402 65.0869 68.938C65.0869 69.5359 64.6884 69.9344 64.0905 69.9344Z" fill="#4E40E7"/>
<path d="M69.0724 39.5C69.0724 38.9022 68.6739 38.5037 68.0761 38.5037H50.1413C49.5434 38.5037 49.1449 38.9022 49.1449 39.5C49.1449 40.0979 49.5434 40.4964 50.1413 40.4964H68.0761C68.6739 40.4964 69.0724 40.0979 69.0724 39.5Z" fill="#4E40E7"/>
<path d="M69.0724 52.9961C69.0724 52.3983 68.6739 51.9998 68.0761 51.9998H50.1413C49.5434 51.9998 49.1449 52.3983 49.1449 52.9961C49.1449 53.594 49.5434 53.9925 50.1413 53.9925H68.0761C68.6739 53.9925 69.0724 53.594 69.0724 52.9961Z" fill="#4E40E7"/>
<path d="M69.0724 64.9527C69.0724 64.3548 68.6739 63.9563 68.0761 63.9563H50.1413C49.5434 63.9563 49.1449 64.3548 49.1449 64.9527C49.1449 65.5505 49.5434 65.9491 50.1413 65.9491H68.0761C68.6739 65.9491 69.0724 65.5505 69.0724 64.9527Z" fill="#4E40E7"/>
</svg>
