<svg width="101" height="100" viewBox="0 0 101 100" fill="none" xmlns="http://www.w3.org/2000/svg">
<rect x="0.5" width="100" height="100" rx="50" fill="#F5B540"/>
<path d="M71.0314 23.72H30.2101C27.6088 23.72 25.5 25.8288 25.5 28.4301V75.5316C25.5 78.1329 27.6088 80.2417 30.2101 80.2417H71.0314C73.6327 80.2417 75.7415 78.1329 75.7415 75.5316V28.4301C75.7415 25.8288 73.6327 23.72 71.0314 23.72Z" fill="white"/>
<path fill-rule="evenodd" clip-rule="evenodd" d="M55.2091 15.8696C57.1653 15.8696 58.8429 17.0621 59.5548 18.7598C59.6169 18.9079 59.7587 19.0098 59.9193 19.0097C62.5206 19.0097 64.6294 21.1185 64.6294 23.7199C64.6294 26.3212 62.5206 28.43 59.9193 28.43H41.0787C38.4773 28.43 36.3685 26.3212 36.3685 23.7199C36.3685 21.1185 38.4773 19.0097 41.0787 19.0097C41.2393 19.0098 41.3811 18.9079 41.4432 18.7598C42.155 17.0621 43.8326 15.8696 45.7888 15.8696H55.2091Z" fill="#FF5C7A"/>
<path d="M47.3009 56.2175C47.6343 56.2175 47.9241 56.3407 48.1705 56.5871C48.4169 56.8335 48.5401 57.1233 48.5401 57.4567V58.4567C48.5401 58.79 48.4169 59.0799 48.1705 59.3262C47.9241 59.5726 47.6343 59.6958 47.3009 59.6958H38.4748C38.1415 59.6958 37.8517 59.5726 37.6053 59.3262C37.3589 59.0799 37.2357 58.79 37.2357 58.4567V57.4567C37.2357 56.6451 37.5618 55.9857 38.214 55.4784C40.6053 53.6523 42.1633 52.3045 42.8879 51.4349C43.6125 50.5509 43.9748 49.6813 43.9748 48.8262C43.9748 47.7393 43.3589 47.1958 42.127 47.1958C41.2575 47.1958 40.127 47.4422 38.7357 47.9349C38.4459 48.0364 38.1777 48.0074 37.9314 47.848C37.685 47.6741 37.5618 47.4422 37.5618 47.1523V45.7175C37.5618 45.3407 37.6705 45.0074 37.8879 44.7175C38.1053 44.4132 38.3879 44.2175 38.7357 44.1306C40.156 43.7828 41.5038 43.6088 42.7792 43.6088C44.5908 43.6088 45.9821 44.0364 46.9531 44.8915C47.9386 45.732 48.4314 46.8987 48.4314 48.3915C48.4314 49.5799 48.0546 50.7103 47.3009 51.7828C46.5618 52.8552 45.098 54.3117 42.9096 56.1523C42.8951 56.1668 42.8879 56.1813 42.8879 56.1958C42.8879 56.2103 42.8951 56.2175 42.9096 56.2175H47.3009ZM55.5435 55.6088C55.8768 56.3045 56.4058 56.6523 57.1304 56.6523C57.8551 56.6523 58.3768 56.3045 58.6956 55.6088C59.029 54.8987 59.1956 53.6161 59.1956 51.761C59.1956 49.9059 59.029 48.6306 58.6956 47.9349C58.3768 47.2248 57.8551 46.8697 57.1304 46.8697C56.4058 46.8697 55.8768 47.2248 55.5435 47.9349C55.2246 48.6306 55.0652 49.9059 55.0652 51.761C55.0652 53.6161 55.2246 54.8987 55.5435 55.6088ZM52.2174 45.5219C53.2898 44.2465 54.9275 43.6088 57.1304 43.6088C59.3333 43.6088 60.971 44.2465 62.0435 45.5219C63.1159 46.7973 63.6522 48.877 63.6522 51.761C63.6522 54.6451 63.1159 56.7248 62.0435 58.0001C60.971 59.2755 59.3333 59.9132 57.1304 59.9132C54.9275 59.9132 53.2898 59.2755 52.2174 58.0001C51.1449 56.7248 50.6087 54.6451 50.6087 51.761C50.6087 48.877 51.1449 46.7973 52.2174 45.5219Z" fill="#F5B33F"/>
</svg>
