<svg width="101" height="100" viewBox="0 0 101 100" fill="none" xmlns="http://www.w3.org/2000/svg">
<rect x="0.5" width="100" height="100" rx="50" fill="#7DA2FF"/>
<path d="M70.5481 24.5171H29.7268C27.1255 24.5171 25.0167 26.6259 25.0167 29.2272V76.3287C25.0167 78.93 27.1255 81.0388 29.7268 81.0388H70.5481C73.1494 81.0388 75.2582 78.93 75.2582 76.3287V29.2272C75.2582 26.6259 73.1494 24.5171 70.5481 24.5171Z" fill="white"/>
<path fill-rule="evenodd" clip-rule="evenodd" d="M54.8468 16.6667C56.803 16.6667 58.4806 17.8592 59.1925 19.5569C59.2546 19.705 59.3964 19.8069 59.5569 19.8068C62.1583 19.8068 64.2671 21.9156 64.2671 24.517C64.2671 27.1183 62.1583 29.2271 59.5569 29.2271H40.7164C38.115 29.2271 36.0062 27.1183 36.0062 24.517C36.0062 21.9156 38.115 19.8068 40.7164 19.8068C40.8769 19.8069 41.0188 19.705 41.0808 19.5569C41.7927 17.8592 43.4703 16.6667 45.4265 16.6667H54.8468Z" fill="#FF5C7A"/>
<path d="M39.3217 46.9712C39.5217 46.9712 39.6956 47.0451 39.8434 47.1929C39.9912 47.3407 40.0651 47.5147 40.0651 47.7147V48.3799C40.0651 48.5799 39.9912 48.7538 39.8434 48.9016C39.6956 49.0494 39.5217 49.1234 39.3217 49.1234H37.7304C37.6521 49.1234 37.613 49.1625 37.613 49.2407V55.7494C37.613 55.9494 37.5391 56.1234 37.3912 56.2712C37.2521 56.419 37.0825 56.4929 36.8825 56.4929H35.6825C35.4825 56.4929 35.3086 56.419 35.1608 56.2712C35.0217 56.1234 34.9521 55.9494 34.9521 55.7494V49.2407C34.9521 49.1625 34.913 49.1234 34.8347 49.1234H33.2434C33.0434 49.1234 32.8695 49.0494 32.7217 48.9016C32.5738 48.7538 32.4999 48.5799 32.4999 48.3799V47.7147C32.4999 47.5147 32.5738 47.3407 32.7217 47.1929C32.8695 47.0451 33.0434 46.9712 33.2434 46.9712H39.3217ZM47.1579 46.9712C47.3579 46.9712 47.5319 47.0451 47.6797 47.1929C47.8275 47.3407 47.9014 47.5147 47.9014 47.7147V48.3147C47.9014 48.5147 47.8275 48.6886 47.6797 48.8364C47.5319 48.9842 47.3579 49.0581 47.1579 49.0581H44.3666C44.2884 49.0581 44.2493 49.0929 44.2493 49.1625V50.506C44.2493 50.5842 44.2884 50.6234 44.3666 50.6234H46.8971C47.0971 50.6234 47.271 50.6973 47.4188 50.8451C47.5666 50.9929 47.6406 51.1668 47.6406 51.3668V51.8364C47.6406 52.0364 47.5666 52.2103 47.4188 52.3581C47.271 52.506 47.0971 52.5799 46.8971 52.5799H44.3666C44.2884 52.5799 44.2493 52.6147 44.2493 52.6842V54.2886C44.2493 54.3668 44.2884 54.406 44.3666 54.406H47.1579C47.3579 54.406 47.5319 54.4799 47.6797 54.6277C47.8275 54.7755 47.9014 54.9494 47.9014 55.1494V55.7494C47.9014 55.9494 47.8275 56.1234 47.6797 56.2712C47.5319 56.419 47.3579 56.4929 47.1579 56.4929H42.384C42.184 56.4929 42.0101 56.419 41.8623 56.2712C41.7145 56.1234 41.6406 55.9494 41.6406 55.7494V47.7147C41.6406 47.5147 41.7145 47.3407 41.8623 47.1929C42.0101 47.0451 42.184 46.9712 42.384 46.9712H47.1579ZM58.3259 46.9712C58.5259 46.9712 58.6998 47.0451 58.8477 47.1929C58.9955 47.3407 59.0694 47.5147 59.0694 47.7147V55.7494C59.0694 55.9494 58.9955 56.1234 58.8477 56.2712C58.6998 56.419 58.5259 56.4929 58.3259 56.4929H57.3737C57.1737 56.4929 56.9998 56.419 56.852 56.2712C56.7042 56.1234 56.6303 55.9494 56.6303 55.7494V51.2886C56.6303 51.2799 56.6259 51.2755 56.6172 51.2755C56.6085 51.2755 56.6042 51.2799 56.6042 51.2886L55.652 53.8451C55.5737 54.0538 55.4433 54.2234 55.2607 54.3538C55.0781 54.4755 54.8737 54.5364 54.6477 54.5364H54.0477C53.8216 54.5364 53.6172 54.4755 53.4346 54.3538C53.252 54.2234 53.1216 54.0538 53.0433 53.8451L52.0911 51.2886C52.0911 51.2799 52.0868 51.2755 52.0781 51.2755C52.0694 51.2755 52.065 51.2799 52.065 51.2886V55.7494C52.065 55.9494 51.9911 56.1234 51.8433 56.2712C51.6955 56.419 51.5216 56.4929 51.3216 56.4929H50.4216C50.2216 56.4929 50.0477 56.419 49.8998 56.2712C49.752 56.1234 49.6781 55.9494 49.6781 55.7494V47.7147C49.6781 47.5147 49.752 47.3407 49.8998 47.1929C50.0477 47.0451 50.2216 46.9712 50.4216 46.9712H51.5824C51.8085 46.9712 52.0129 47.0364 52.1955 47.1668C52.3781 47.2886 52.5042 47.4538 52.5737 47.6625L54.3346 52.5668C54.3346 52.5755 54.339 52.5799 54.3477 52.5799C54.3564 52.5799 54.3607 52.5755 54.3607 52.5668L56.1216 47.6625C56.1911 47.4538 56.3172 47.2886 56.4998 47.1668C56.6824 47.0364 56.8868 46.9712 57.1129 46.9712H58.3259ZM67.7982 46.9712C67.9982 46.9712 68.1721 47.0451 68.32 47.1929C68.4678 47.3407 68.5417 47.5147 68.5417 47.7147V55.7494C68.5417 55.9494 68.4678 56.1234 68.32 56.2712C68.1721 56.419 67.9982 56.4929 67.7982 56.4929H66.8069C66.6069 56.4929 66.433 56.419 66.2852 56.2712C66.1374 56.1234 66.0634 55.9494 66.0634 55.7494V51.2886C66.0634 51.2799 66.0591 51.2755 66.0504 51.2755C66.0417 51.2755 66.0374 51.2799 66.0374 51.2886L63.7808 55.8277C63.5634 56.2712 63.2069 56.4929 62.7113 56.4929H61.72C61.52 56.4929 61.3461 56.419 61.1982 56.2712C61.0504 56.1234 60.9765 55.9494 60.9765 55.7494V47.7147C60.9765 47.5147 61.0504 47.3407 61.1982 47.1929C61.3461 47.0451 61.52 46.9712 61.72 46.9712H62.7113C62.9113 46.9712 63.0852 47.0451 63.233 47.1929C63.3808 47.3407 63.4548 47.5147 63.4548 47.7147V52.1755C63.4548 52.1842 63.4591 52.1886 63.4678 52.1886C63.4765 52.1886 63.4808 52.1842 63.4808 52.1755L65.7374 47.6364C65.9548 47.1929 66.3113 46.9712 66.8069 46.9712H67.7982Z" fill="#7DA2FF"/>
</svg>
