<svg width="101" height="100" viewBox="0 0 101 100" fill="none" xmlns="http://www.w3.org/2000/svg">
<g clip-path="url(#clip0)">
<rect x="0.5" width="100" height="100" rx="50" fill="#DB5F73"/>
<rect x="24.4131" y="21.0146" width="52.1739" height="57.971" rx="4.34783" fill="white"/>
<path d="M58.4457 39.4818H44.4964C43.8986 39.4818 43.5 39.0832 43.5 38.4854C43.5 37.8876 43.8986 37.489 44.4964 37.489H58.4457C59.0435 37.489 59.442 37.8876 59.442 38.4854C59.442 39.0832 59.0435 39.4818 58.4457 39.4818Z" fill="#347AF0"/>
<path d="M58.4457 53.9781H44.4964C43.8986 53.9781 43.5 53.5796 43.5 52.9817C43.5 52.3839 43.8986 51.9854 44.4964 51.9854H58.4457C59.0435 51.9854 59.442 52.3839 59.442 52.9817C59.442 53.5796 59.0435 53.9781 58.4457 53.9781Z" fill="#347AF0"/>
<path d="M58.4457 66.9346H44.4964C43.8986 66.9346 43.5 66.5361 43.5 65.9383C43.5 65.3404 43.8986 64.9419 44.4964 64.9419H58.4457C59.0435 64.9419 59.442 65.3404 59.442 65.9383C59.442 66.5361 59.0435 66.9346 58.4457 66.9346Z" fill="#347AF0"/>
<path d="M63.4275 34.5C63.4275 33.9022 63.029 33.5037 62.4312 33.5037H44.4964C43.8986 33.5037 43.5 33.9022 43.5 34.5C43.5 35.0979 43.8986 35.4964 44.4964 35.4964H62.4312C63.029 35.4964 63.4275 35.0979 63.4275 34.5Z" fill="#347AF0"/>
<path d="M63.4275 48.9964C63.4275 48.3986 63.029 48 62.4312 48H44.4964C43.8986 48 43.5 48.3986 43.5 48.9964C43.5 49.5942 43.8986 49.9928 44.4964 49.9928H62.4312C63.029 49.9928 63.4275 49.5942 63.4275 48.9964Z" fill="#347AF0"/>
<path d="M63.4275 61.9529C63.4275 61.3551 63.029 60.9565 62.4312 60.9565H44.4964C43.8986 60.9565 43.5 61.3551 43.5 61.9529C43.5 62.5507 43.8986 62.9493 44.4964 62.9493H62.4312C63.029 62.9493 63.4275 62.5507 63.4275 61.9529Z" fill="#347AF0"/>
<path fill-rule="evenodd" clip-rule="evenodd" d="M36.9348 41.4166C39.6862 41.4166 41.9166 39.1862 41.9166 36.4348C41.9166 33.6833 39.6862 31.4529 36.9348 31.4529C34.1833 31.4529 31.9529 33.6833 31.9529 36.4348C31.9529 39.1862 34.1833 41.4166 36.9348 41.4166Z" fill="#E8472E"/>
<path fill-rule="evenodd" clip-rule="evenodd" d="M39.1022 38.1492C39.2316 38.2786 39.2316 38.4727 39.1022 38.6021C39.0375 38.6668 38.9728 38.6992 38.8758 38.6992C38.7787 38.6992 38.714 38.6668 38.6493 38.6021L36.9348 36.8876L35.2202 38.6021C35.1555 38.6668 35.0908 38.6992 34.9938 38.6992C34.8967 38.6992 34.832 38.6668 34.7673 38.6021C34.6379 38.4727 34.6379 38.2786 34.7673 38.1492L36.4819 36.4347L34.7673 34.7201C34.6379 34.5907 34.6379 34.3966 34.7673 34.2672C34.8967 34.1378 35.0908 34.1378 35.2202 34.2672L36.9348 35.9818L38.6493 34.2672C38.7787 34.1378 38.9728 34.1378 39.1022 34.2672C39.2316 34.3966 39.2316 34.5907 39.1022 34.7201L37.3877 36.4347L39.1022 38.1492Z" fill="white"/>
<path fill-rule="evenodd" clip-rule="evenodd" d="M36.9348 55.4166C39.6862 55.4166 41.9166 53.1862 41.9166 50.4348C41.9166 47.6833 39.6862 45.4529 36.9348 45.4529C34.1833 45.4529 31.9529 47.6833 31.9529 50.4348C31.9529 53.1862 34.1833 55.4166 36.9348 55.4166Z" fill="#E8472E"/>
<path fill-rule="evenodd" clip-rule="evenodd" d="M39.1022 52.1492C39.2316 52.2786 39.2316 52.4727 39.1022 52.6021C39.0375 52.6668 38.9728 52.6992 38.8758 52.6992C38.7787 52.6992 38.714 52.6668 38.6493 52.6021L36.9348 50.8876L35.2202 52.6021C35.1555 52.6668 35.0908 52.6992 34.9938 52.6992C34.8967 52.6992 34.832 52.6668 34.7673 52.6021C34.6379 52.4727 34.6379 52.2786 34.7673 52.1492L36.4819 50.4347L34.7673 48.7201C34.6379 48.5907 34.6379 48.3966 34.7673 48.2672C34.8967 48.1378 35.0908 48.1378 35.2202 48.2672L36.9348 49.9818L38.6493 48.2672C38.7787 48.1378 38.9728 48.1378 39.1022 48.2672C39.2316 48.3966 39.2316 48.5907 39.1022 48.7201L37.3877 50.4347L39.1022 52.1492Z" fill="white"/>
<path fill-rule="evenodd" clip-rule="evenodd" d="M36.9348 68.4166C39.6862 68.4166 41.9166 66.1862 41.9166 63.4348C41.9166 60.6833 39.6862 58.4529 36.9348 58.4529C34.1833 58.4529 31.9529 60.6833 31.9529 63.4348C31.9529 66.1862 34.1833 68.4166 36.9348 68.4166Z" fill="#E8472E"/>
<path fill-rule="evenodd" clip-rule="evenodd" d="M39.1022 65.1492C39.2316 65.2786 39.2316 65.4727 39.1022 65.6021C39.0375 65.6668 38.9728 65.6992 38.8758 65.6992C38.7787 65.6992 38.714 65.6668 38.6493 65.6021L36.9348 63.8876L35.2202 65.6021C35.1555 65.6668 35.0908 65.6992 34.9938 65.6992C34.8967 65.6992 34.832 65.6668 34.7673 65.6021C34.6379 65.4727 34.6379 65.2786 34.7673 65.1492L36.4819 63.4347L34.7673 61.7201C34.6379 61.5907 34.6379 61.3966 34.7673 61.2672C34.8967 61.1378 35.0908 61.1378 35.2202 61.2672L36.9348 62.9818L38.6493 61.2672C38.7787 61.1378 38.9728 61.1378 39.1022 61.2672C39.2316 61.3966 39.2316 61.5907 39.1022 61.7201L37.3877 63.4347L39.1022 65.1492Z" fill="white"/>
</g>
<defs>
<clipPath id="clip0">
<rect width="100" height="100" fill="white" transform="translate(0.5)"/>
</clipPath>
</defs>
</svg>
